<svg width="386" height="525" viewBox="0 0 386 525" fill="none" xmlns="http://www.w3.org/2000/svg">
<path d="M328.266 525H56.6655C39.6885 525 23.7675 518 12.9155 505.926C3.11474 495.074 -1.26045 481.25 0.313552 467.074L18.5125 187.594C21.6609 160.117 45.8135 139.821 74.8645 139.821H310.065C339.116 139.821 363.44 159.946 366.417 186.719L384.792 467.769C386.366 481.07 381.815 494.894 372.019 505.746C361.167 517.82 345.246 524.82 328.269 524.82L328.266 525ZM74.8655 175C63.8425 175 54.3885 182 53.3425 190.75L35.1435 470.23C34.4443 476.355 36.8935 480.207 38.9951 482.656C43.1943 487.383 49.4951 490.008 56.6711 490.008H328.441C335.441 490.008 341.918 487.383 346.117 482.656C348.219 480.207 350.668 476.355 350.141 471.105L331.766 190.055C330.891 182.004 321.442 175.004 310.243 175.004L74.8655 175Z" fill="black"/>
<path d="M279.965 227.5C270.34 227.5 262.465 219.625 262.465 210V105C262.465 66.324 231.141 35 192.465 35C153.789 35 122.465 66.324 122.465 105V210C122.465 219.625 114.59 227.5 104.965 227.5C95.3403 227.5 87.4653 219.625 87.4653 210V105C87.4653 47.074 134.539 0 192.465 0C250.391 0 297.465 47.074 297.465 105V210C297.465 219.625 289.59 227.5 279.965 227.5Z" fill="black"/>
</svg>
