<svg width="700" height="700" viewBox="0 0 700 700" fill="none" xmlns="http://www.w3.org/2000/svg">
<path d="M533.284 276.553C539.097 266.432 542 255.713 542 244.999C542 216.423 521.657 190.226 483.882 171.174C447.85 152.719 400.191 142.598 349.63 142.598C299.068 142.598 251.409 152.718 215.377 171.174C178.182 190.821 157.259 217.017 157.259 244.999C157.259 255.713 160.166 266.432 165.975 276.553V447.419C164.232 452.183 163.652 457.54 163.652 462.303C163.652 515.29 246.759 558.155 349.049 558.155C451.335 558.155 534.445 515.29 534.445 462.303C534.445 456.946 533.865 452.183 532.122 447.419V276.553H533.284ZM527.475 255.717C522.825 274.771 505.972 292.628 478.072 306.918C443.784 324.78 398.452 334.306 349.632 334.306C300.814 334.306 255.482 324.78 221.191 306.918C193.876 292.628 176.439 274.771 171.789 255.717C170.625 252.146 170.625 248.574 170.625 245.003C170.625 221.784 188.641 200.352 221.187 183.088C255.475 165.227 300.807 155.7 349.627 155.7C398.445 155.7 443.777 165.227 478.068 183.088C510.613 199.758 528.63 221.784 528.63 245.003C529.217 248.575 528.634 252.146 527.474 255.717H527.475Z" fill="black"/>
<path d="M447.851 258.097C442.037 255.119 438.551 252.141 438.551 249.168C438.551 246.19 442.037 243.213 447.267 240.239C450.174 239.048 451.917 236.07 451.337 232.499C450.757 229.521 449.014 226.543 445.524 225.949C433.905 223.566 427.512 217.615 427.512 214.043C427.512 212.258 429.255 209.874 430.419 209.28C431.582 208.088 432.162 206.9 432.742 205.709C433.322 203.923 433.322 202.137 432.162 200.351C430.419 197.374 426.933 195.588 424.026 196.78C421.703 197.374 419.956 197.374 417.633 197.972C414.146 198.566 410.66 198.566 407.174 198.566C390.901 198.566 378.695 193.802 373.465 188.445C371.722 186.659 368.235 185.467 365.909 186.659C359.515 189.039 351.379 190.231 343.243 190.231C332.199 190.231 321.74 187.851 314.764 183.682C313.6 183.088 312.441 182.49 311.277 182.49C310.114 182.49 308.954 182.49 308.371 183.084C307.207 183.678 306.048 184.276 305.464 185.463C304.884 186.057 304.3 187.249 304.3 188.441C303.137 193.204 292.678 200.347 275.241 201.539C272.918 201.539 271.171 202.133 268.848 202.133H263.035C260.128 202.133 256.642 203.918 255.478 206.896C254.898 208.682 254.898 210.467 255.478 212.253C256.058 213.445 256.642 214.633 257.801 215.231C258.965 216.423 261.288 218.208 261.288 220.588V221.78C260.708 222.972 260.124 223.566 259.544 224.758C256.638 228.329 250.245 231.901 240.945 233.686C238.038 234.28 235.131 237.258 235.131 240.235C234.551 243.807 236.874 246.784 239.781 247.976C245.011 250.356 247.917 252.74 249.661 254.525L250.824 257.503C250.824 259.289 249.661 260.481 248.501 261.672C246.758 264.052 246.178 267.03 246.758 269.413C247.921 272.391 250.244 274.177 253.151 274.177C268.844 275.962 279.887 281.918 281.63 287.274C282.793 290.846 286.28 293.23 290.346 292.632C295.576 291.44 300.805 290.846 306.039 290.846C318.246 290.846 329.868 293.824 336.841 298.587C338.005 299.181 339.748 299.779 340.912 299.779C341.491 299.779 342.655 299.779 343.234 299.185C348.464 297.399 387.403 293.828 397.866 293.828C401.937 293.828 405.423 290.256 405.423 286.087C405.423 280.132 419.952 271.797 441.455 271.797H446.685C450.171 271.797 453.658 269.418 454.241 266.44C452.502 263.458 451.343 259.883 447.852 258.097L447.851 258.097ZM313.598 200.347C321.734 203.325 332.198 205.111 342.657 205.111C350.793 205.111 358.93 203.919 366.487 201.539C369.973 204.517 374.623 206.303 379.272 208.088C369.393 212.852 353.7 223.566 344.984 230.115C341.497 227.736 338.591 225.946 335.104 224.16C326.968 219.397 314.182 212.847 302.559 209.276C307.789 206.897 311.275 203.325 313.599 200.348L313.598 200.347ZM272.336 227.736C272.916 227.142 273.5 226.544 274.08 225.95C277.566 222.972 281.636 220.593 287.446 220.593C289.189 220.593 292.096 220.593 294.419 221.187L270.589 233.093L268.846 234.285C269.43 232.499 270.01 230.115 272.337 227.735L272.336 227.736ZM270.009 259.883L263.616 254.526L262.453 253.334L263.616 252.74L313.598 227.735V227.141C315.921 228.333 318.827 229.521 321.154 230.713L270.009 259.883ZM285.122 268.218L335.104 240.236C339.174 242.615 343.24 245.593 346.726 247.977L306.045 272.982L285.122 268.218ZM328.127 277.744H327.548L360.093 258.097C361.836 259.883 363.579 261.075 364.743 262.267C361.256 265.838 346.143 272.981 328.127 277.745L328.127 277.744ZM389.731 279.53C382.175 280.124 369.388 280.722 358.35 281.91C367.066 277.74 375.202 272.383 376.95 266.431C378.113 263.454 377.529 259.882 376.37 256.905H376.95L423.445 250.949C423.445 253.927 424.025 256.307 425.768 259.284C407.752 261.074 394.382 268.815 389.732 279.529L389.731 279.53ZM428.09 236.664V235.477C428.67 235.477 428.67 236.07 429.254 236.07C428.674 236.07 428.674 236.664 428.09 236.664V236.664Z" fill="black"/>
<path d="M269.429 183.082C269.429 187.355 266.044 190.823 261.872 190.823C257.7 190.823 254.319 187.355 254.319 183.082C254.319 178.809 257.7 175.341 261.872 175.341C266.044 175.341 269.429 178.809 269.429 183.082" fill="black"/>
<path d="M210.148 227.138C210.148 231.411 206.767 234.875 202.592 234.875C198.42 234.875 195.039 231.411 195.039 227.138C195.039 222.861 198.42 219.397 202.592 219.397C206.767 219.397 210.148 222.861 210.148 227.138Z" fill="black"/>
<path d="M238.045 277.148C238.045 281.421 234.664 284.885 230.492 284.885C226.317 284.885 222.936 281.421 222.936 277.148C222.936 272.875 226.317 269.407 230.492 269.407C234.664 269.407 238.045 272.875 238.045 277.148Z" fill="black"/>
<path d="M310.111 321.8C310.111 326.073 306.73 329.536 302.554 329.536C298.383 329.536 295.002 326.073 295.002 321.8C295.002 317.526 298.383 314.059 302.554 314.059C306.73 314.059 310.111 317.526 310.111 321.8" fill="black"/>
<path d="M433.321 287.269C433.321 291.542 429.94 295.01 425.769 295.01C421.593 295.01 418.212 291.542 418.212 287.269C418.212 282.996 421.593 279.528 425.769 279.528C429.94 279.528 433.321 282.996 433.321 287.269Z" fill="black"/>
<path d="M516.43 270.004C516.43 274.281 513.045 277.745 508.873 277.745C504.702 277.745 501.321 274.281 501.321 270.004C501.321 265.731 504.702 262.267 508.873 262.267C513.045 262.267 516.43 265.731 516.43 270.004Z" fill="black"/>
<path d="M390.895 185.463C392.059 185.463 393.218 184.87 393.802 184.87C396.125 183.678 397.872 181.298 397.872 178.32C397.872 174.151 394.386 170.58 390.315 170.58C386.245 170.58 382.759 174.151 382.759 178.32V179.512C384.502 183.084 387.409 185.463 390.895 185.463L390.895 185.463Z" fill="black"/>
<path d="M335.683 176.533C339.753 176.533 343.24 172.962 343.24 168.792C343.24 167.6 342.66 166.413 342.66 165.815C341.496 163.435 339.173 161.645 336.267 161.645C332.196 161.645 328.71 165.217 328.71 169.386C328.71 170.578 329.29 171.766 329.874 172.958C330.453 174.747 332.776 176.533 335.683 176.533V176.533Z" fill="black"/>
<path d="M490.858 203.919C490.858 208.193 487.477 211.656 483.301 211.656C479.13 211.656 475.749 208.193 475.749 203.919C475.749 199.642 479.13 196.178 483.301 196.178C487.477 196.178 490.858 199.642 490.858 203.919Z" fill="black"/>
<path d="M476.328 252.143C476.328 256.416 472.947 259.88 468.772 259.88C464.6 259.88 461.219 256.416 461.219 252.143C461.219 247.866 464.6 244.402 468.772 244.402C472.947 244.402 476.328 247.866 476.328 252.143Z" fill="black"/>
<path d="M385.083 317.037C385.083 321.31 381.698 324.778 377.527 324.778C373.355 324.778 369.97 321.31 369.97 317.037C369.97 312.764 373.355 309.296 377.527 309.296C381.698 309.296 385.083 312.764 385.083 317.037Z" fill="black"/>
</svg>
