<svg width="700" height="700" viewBox="0 0 700 700" fill="none" xmlns="http://www.w3.org/2000/svg">
<path d="M584.841 274.027C584.841 258.347 578.122 244.347 568.04 234.265V233.706C574.2 211.866 569.161 193.386 554.599 179.386C529.958 156.425 484.04 153.066 449.319 154.187C403.96 155.867 352.44 165.386 303.719 182.187C260.598 196.746 223.078 215.789 195.079 237.066C178.278 249.945 164.841 263.386 155.317 276.828C153.637 277.95 151.957 280.188 151.957 282.43C145.239 293.629 140.758 304.828 139.078 316.032C137.957 322.751 137.399 328.911 136.84 334.512C123.399 344.59 115 360.274 115 378.192C115 387.712 117.238 397.231 122.281 405.633C118.363 414.028 116.121 423.547 116.121 433.067C116.121 462.747 139.641 486.829 168.762 487.946C178.281 506.426 196.762 517.626 217.481 517.626C220.282 517.626 222.52 517.626 225.321 517.067C234.84 534.989 253.321 546.747 274.04 546.747C294.2 546.747 313.239 534.985 322.759 517.626H327.239C352.438 517.626 373.719 500.825 379.88 477.306C385.482 478.986 391.642 480.107 397.239 480.107C423.001 480.107 444.841 462.185 450.438 437.548C456.04 439.787 462.2 440.908 468.918 440.908C496.359 440.908 519.316 420.189 523.238 393.306C525.477 393.864 527.719 393.864 530.52 393.864C560.758 393.864 585.399 369.223 585.399 338.985C585.399 327.223 581.477 316.024 574.757 306.505C580.922 297.548 584.843 285.786 584.843 274.028L584.841 274.027ZM529.958 378.187C526.036 378.187 521.559 377.628 517.638 376.507C515.399 375.949 512.599 375.949 510.357 377.628C508.118 379.308 506.997 381.55 507.556 384.347V386.027C507.556 407.308 490.197 425.226 468.357 425.226C461.075 425.226 453.798 422.988 447.638 419.624C445.399 417.945 442.036 417.945 439.798 419.624C437.56 420.745 435.876 423.546 435.876 426.343C435.317 447.624 417.954 464.984 396.677 464.984C389.958 464.984 383.236 463.304 377.075 459.945C374.837 458.824 372.036 458.265 369.235 459.945C366.997 461.066 365.313 463.867 365.313 466.105C364.192 486.824 346.833 502.503 326.114 502.503C323.313 502.503 321.075 502.503 318.275 501.945C314.353 501.386 310.993 503.066 309.314 506.984C303.712 522.105 289.154 532.183 272.916 532.183C256.678 532.183 241.557 522.105 235.955 506.421C235.959 502.507 233.162 500.265 229.798 500.265H227.56C224.201 501.386 220.841 501.386 217.482 501.386C201.244 501.386 186.681 491.866 181.084 476.187C179.963 472.827 176.604 471.148 173.244 471.148H170.443C149.162 471.148 131.244 453.789 131.244 431.949C131.244 423.55 134.045 415.711 138.526 408.988C140.205 406.187 140.205 402.827 138.526 400.027C133.487 393.308 131.244 385.468 131.244 377.066C131.244 369.226 133.483 361.386 137.963 355.226C141.323 389.386 158.123 406.746 174.361 415.706C189.482 424.667 207.963 428.026 226.439 428.026C263.4 428.026 301.478 414.026 318.279 400.585C378.759 351.304 424.119 321.065 457.719 301.464H458.84H459.399C462.2 301.464 465.001 299.225 466.118 296.425C496.919 279.066 517.638 271.226 531.079 266.187C531.637 266.187 532.759 265.628 533.317 265.628C534.438 265.628 535.555 265.069 536.676 264.507C547.875 260.026 555.715 256.108 561.317 248.269C566.357 254.988 569.716 263.39 569.716 272.347C569.716 282.425 565.794 291.949 558.517 299.788C555.716 302.589 555.716 307.628 558.517 310.429C565.798 317.71 569.716 327.23 569.716 337.87C569.161 360.827 551.798 378.186 529.958 378.186L529.958 378.187ZM154.198 326.105C154.756 323.867 154.756 321.066 155.319 318.824C156.44 312.664 158.678 305.945 161.479 299.785C163.159 302.023 164.838 304.265 166.518 306.504C168.198 308.183 169.878 310.426 171.557 312.664C173.796 314.902 176.038 317.144 178.276 319.383C187.796 328.344 200.116 336.184 214.116 338.985C219.718 340.106 224.194 341.223 229.237 342.907C265.635 354.669 284.678 378.188 290.839 395.548C291.398 397.227 291.96 398.348 291.96 400.028C262.839 413.469 213.562 422.426 182.2 403.95C162.598 392.751 153.079 372.591 153.079 343.47C153.079 340.669 153.079 337.868 153.638 334.509C153.638 332.267 154.2 329.466 154.2 326.107L154.198 326.105ZM393.878 176.025C398.358 175.466 402.839 174.345 407.319 173.787C407.877 174.345 408.998 174.908 409.557 176.025C411.237 177.705 413.479 179.384 416.276 181.064C424.674 187.224 438.116 195.623 455.475 200.666C457.154 201.225 458.834 201.787 461.076 202.346C505.314 213.545 519.314 236.506 523.236 252.744C523.236 253.302 523.236 253.865 523.795 254.424C510.357 259.463 491.318 266.744 463.318 281.865C453.798 254.986 422.998 224.744 378.759 213.545C374.279 212.423 370.361 211.306 366.439 209.623C363.08 208.502 360.279 207.384 357.478 205.701C354.677 204.58 351.876 202.9 349.08 201.779C341.24 197.857 334.521 193.939 329.478 190.58C350.755 184.424 373.158 179.385 393.876 176.025L393.878 176.025ZM543.958 191.142C553.477 200.103 556.278 210.744 554.036 224.744C553.477 226.424 553.477 228.103 552.915 229.783C552.915 230.904 552.356 232.021 552.356 232.584C551.235 235.385 550.676 237.623 549.555 239.865C547.317 243.787 543.954 246.025 538.356 248.264C537.235 244.342 536.118 239.865 533.876 234.823C532.196 230.901 529.395 226.983 526.595 223.061C515.954 209.061 497.474 195.061 465.556 187.221C464.997 187.221 463.876 186.662 463.317 186.662C449.317 182.74 438.118 176.584 430.278 171.541C432.516 171.541 434.2 170.982 436.438 170.982C441.478 170.424 445.958 170.424 450.997 170.424H461.075C498.598 169.865 528.841 177.143 543.958 191.143L543.958 191.142ZM309.318 197.302C309.876 197.302 309.876 197.302 309.318 197.302C313.24 200.103 321.638 205.142 332.279 211.302C335.079 212.982 337.88 214.103 340.677 215.783C343.478 216.904 346.279 218.584 349.076 219.705C352.435 221.384 356.357 223.064 360.275 224.185C365.314 225.865 370.353 227.545 375.396 228.666C416.837 239.307 443.158 267.865 449.318 288.588C449.318 289.146 449.318 289.146 449.876 289.709C430.837 300.908 407.876 315.471 380.997 334.51C375.958 305.951 347.395 272.35 298.677 260.03C294.755 258.909 290.279 257.791 286.357 255.549C283.556 254.428 280.755 252.748 277.959 251.627C275.158 250.506 272.357 248.827 270.119 247.147C258.357 240.428 247.721 232.588 240.998 226.987C260.596 216.346 283.557 206.264 309.318 197.303L309.318 197.302ZM226.435 235.384C232.036 239.865 242.115 248.263 254.435 256.103C256.673 257.783 259.474 259.463 262.275 260.584C265.075 262.263 267.314 263.385 270.114 265.064C275.716 267.865 281.313 270.666 287.473 272.345C290.274 273.467 292.512 274.025 295.313 274.584C333.954 284.662 358.594 310.424 364.754 332.264C365.313 335.065 365.875 337.865 366.434 340.104C366.434 341.225 366.992 342.904 367.555 343.463C349.633 356.904 330.035 372.022 308.196 389.385C307.637 389.944 306.516 390.506 305.958 391.065C302.036 379.303 294.196 366.987 283.56 356.346C271.798 345.147 251.08 330.026 217.482 323.307C207.962 321.627 199.002 316.025 191.72 309.866C189.481 308.186 187.798 305.944 185.559 304.264C183.88 302.026 181.637 300.342 179.958 298.104C175.477 292.502 172.118 287.463 169.88 284.104C182.196 267.303 201.235 250.506 226.435 235.385L226.435 235.384Z" fill="black"/>
<path d="M232.041 454.347C232.041 458.984 228.279 462.745 223.638 462.745C219.002 462.745 215.24 458.984 215.24 454.347C215.24 449.706 219.002 445.945 223.638 445.945C228.279 445.945 232.041 449.706 232.041 454.347Z" fill="black"/>
<path d="M162.601 445.387C162.601 450.028 158.839 453.785 154.202 453.785C149.562 453.785 145.8 450.028 145.8 445.387C145.8 440.746 149.562 436.989 154.202 436.989C158.839 436.989 162.601 440.746 162.601 445.387Z" fill="black"/>
<path d="M408.511 413.407C412.53 415.727 413.905 420.864 411.585 424.88C409.265 428.9 404.128 430.275 400.112 427.954C396.092 425.638 394.717 420.497 397.038 416.481C399.358 412.462 404.495 411.087 408.511 413.407Z" fill="black"/>
<path d="M447.941 345.297C451.96 347.617 453.335 352.754 451.015 356.774C448.695 360.79 443.558 362.169 439.542 359.848C435.522 357.528 434.147 352.391 436.468 348.375C438.788 344.356 443.925 342.981 447.941 345.297" fill="black"/>
<path d="M545.851 278.517C550.245 280.005 552.601 284.775 551.109 289.169C549.62 293.56 544.851 295.915 540.457 294.423C536.066 292.935 533.71 288.165 535.203 283.775C536.691 279.38 541.46 277.025 545.851 278.517" fill="black"/>
<path d="M530.101 336.147C534.495 337.635 536.847 342.405 535.358 346.799C533.866 351.19 529.101 353.545 524.706 352.057C520.312 350.565 517.96 345.795 519.449 341.405C520.937 337.01 525.706 334.655 530.101 336.147Z" fill="black"/>
<path d="M334.511 426.887C338.905 428.375 341.261 433.145 339.768 437.539C338.28 441.934 333.511 444.285 329.116 442.797C324.726 441.305 322.37 436.539 323.859 432.145C325.351 427.75 330.12 425.399 334.511 426.887Z" fill="black"/>
<path d="M279.641 499.707C279.641 504.344 275.883 508.105 271.242 508.105C266.602 508.105 262.844 504.344 262.844 499.707C262.844 495.066 266.602 491.305 271.242 491.305C275.883 491.305 279.641 495.066 279.641 499.707Z" fill="black"/>
</svg>
